<svg width="25" height="25" viewBox="0 0 25 25" fill="none" xmlns="http://www.w3.org/2000/svg">
<path d="M13.0003 15.5814L7.85742 16.5071L8.71456 11.2957L18.5374 1.50708C18.6968 1.34641 18.8864 1.21887 19.0953 1.13184C19.3042 1.04481 19.5283 1 19.7546 1C19.9809 1 20.2049 1.04481 20.4138 1.13184C20.6227 1.21887 20.8123 1.34641 20.9717 1.50708L22.7889 3.32423C22.9495 3.48359 23.0771 3.67319 23.1641 3.88209C23.2511 4.091 23.2959 4.31506 23.2959 4.54137C23.2959 4.76767 23.2511 4.99174 23.1641 5.20064C23.0771 5.40954 22.9495 5.59915 22.7889 5.75851L13.0003 15.5814Z" stroke="#02398B" stroke-width="1.71429" stroke-linecap="round" stroke-linejoin="round"/>
<path d="M20.7143 16.4386V21.5814C20.7143 22.0361 20.5337 22.4721 20.2122 22.7936C19.8907 23.1151 19.4547 23.2957 19 23.2957H2.71429C2.25963 23.2957 1.82359 23.1151 1.5021 22.7936C1.18061 22.4721 1 22.0361 1 21.5814V5.29571C1 4.84105 1.18061 4.40501 1.5021 4.08352C1.82359 3.76203 2.25963 3.58142 2.71429 3.58142H7.85714" stroke="#02398B" stroke-width="1.71429" stroke-linecap="round" stroke-linejoin="round"/>
</svg>
