<svg width="28" height="28" viewBox="0 0 28 28" fill="none" xmlns="http://www.w3.org/2000/svg">
<path d="M15.5879 26.2857H2.94505C2.42919 26.2857 1.93446 26.0808 1.56969 25.716C1.20492 25.3513 1 24.8565 1 24.3407V2.94506C1 2.42919 1.20492 1.93446 1.56969 1.56969C1.93446 1.20492 2.42919 1 2.94505 1H17.533" stroke="white" stroke-width="1.71429" stroke-linecap="round" stroke-linejoin="round"/>
<path d="M20.4502 6.83517L23.3678 1L26.2854 6.83517V23.3681C26.2854 24.1419 25.978 24.884 25.4308 25.4312C24.8837 25.9783 24.1416 26.2857 23.3678 26.2857C22.594 26.2857 21.8519 25.9783 21.3047 25.4312C20.7576 24.884 20.4502 24.1419 20.4502 23.3681V6.83517Z" stroke="white" stroke-width="1.71429" stroke-linecap="round" stroke-linejoin="round"/>
<path d="M20.4502 18.5055H26.2854" stroke="white" stroke-width="1.71429" stroke-linecap="round" stroke-linejoin="round"/>
<path d="M6.83496 1V26.2857" stroke="white" stroke-width="1.71429" stroke-linecap="round" stroke-linejoin="round"/>
<path d="M11.6973 7.80774H15.5874" stroke="white" stroke-width="1.71429" stroke-linecap="round" stroke-linejoin="round"/>
</svg>
