<svg width="57" height="57" viewBox="0 0 57 57" fill="none" xmlns="http://www.w3.org/2000/svg">
<g clip-path="url(#clip0_456_320)">
<path d="M13.7207 23.8179L24.0621 7.28785C24.4629 6.6345 25.0261 6.0961 25.6968 5.72507C26.3675 5.35405 27.1228 5.16306 27.8893 5.17071V5.17071C28.4929 5.14892 29.0948 5.24836 29.6593 5.46315C30.2239 5.67794 30.7396 6.00372 31.1761 6.42123C31.6126 6.83875 31.961 7.33953 32.2006 7.89397C32.4403 8.44842 32.5664 9.04528 32.5714 9.64928V21.4971H50.445C51.1054 21.5186 51.7539 21.6795 52.3477 21.9695C52.9414 22.2594 53.4671 22.6718 53.8902 23.1794C54.3132 23.687 54.624 24.2784 54.8021 24.9148C54.9802 25.5511 55.0216 26.2179 54.9236 26.8714L51.6664 47.88C51.5275 49.0027 50.9833 50.0361 50.1361 50.7858C49.2889 51.5356 48.197 51.9501 47.0657 51.9514H20.3571C19.0857 51.9564 17.8308 51.6636 16.6928 51.0964L13.7614 49.6307" stroke="#070707" stroke-width="5" stroke-linecap="round" stroke-linejoin="round"/>
<path d="M13.7207 23.8179V49.5086" stroke="#070707" stroke-width="5" stroke-linecap="round" stroke-linejoin="round"/>
<path d="M4.07136 23.8179H13.7206V49.5086H4.07136C3.53145 49.5086 3.01366 49.2941 2.63189 48.9123C2.25012 48.5306 2.03564 48.0128 2.03564 47.4729V25.8536C2.03564 25.3137 2.25012 24.7959 2.63189 24.4141C3.01366 24.0323 3.53145 23.8179 4.07136 23.8179V23.8179Z" stroke="#070707" stroke-width="5" stroke-linecap="round" stroke-linejoin="round"/>
</g>
<defs>
<clipPath id="clip0_456_320">
<rect width="57" height="57" fill="white"/>
</clipPath>
</defs>
</svg>
