<svg width="24" height="24" viewBox="0 0 24 24" fill="none" xmlns="http://www.w3.org/2000/svg">
<g clip-path="url(#clip0_495_412)">
<path d="M11.0403 23.1429C13.0948 23.1429 14.7603 21.4774 14.7603 19.4229C14.7603 17.3684 13.0948 15.7029 11.0403 15.7029C8.98581 15.7029 7.32031 17.3684 7.32031 19.4229C7.32031 21.4774 8.98581 23.1429 11.0403 23.1429Z" stroke="white" stroke-width="1.71429" stroke-linecap="round" stroke-linejoin="round"/>
<path d="M13.7148 16.8001L20.332 10.183C20.3893 10.1254 20.4574 10.0798 20.5325 10.0486C20.6075 10.0175 20.6879 10.0015 20.7691 10.0015C20.8504 10.0015 20.9308 10.0175 21.0058 10.0486C21.0808 10.0798 21.1489 10.1254 21.2063 10.183L23.1434 12.1544" stroke="white" stroke-width="1.71429" stroke-linecap="round" stroke-linejoin="round"/>
<path d="M17.915 12.6343L19.6636 14.3828" stroke="white" stroke-width="1.71429" stroke-linecap="round" stroke-linejoin="round"/>
<path d="M3.42885 21.4286H2.57171C2.11705 21.4286 1.68102 21.248 1.35952 20.9265C1.03803 20.605 0.857422 20.169 0.857422 19.7143V2.57146C0.857422 2.11681 1.03803 1.68077 1.35952 1.35928C1.68102 1.03779 2.11705 0.857178 2.57171 0.857178H21.4289C21.8835 0.857178 22.3195 1.03779 22.641 1.35928C22.9625 1.68077 23.1431 2.11681 23.1431 2.57146V6.85718" stroke="white" stroke-width="1.71429" stroke-linecap="round" stroke-linejoin="round"/>
<path d="M0.857422 6H23.1431" stroke="white" stroke-width="1.71429" stroke-linecap="round" stroke-linejoin="round"/>
</g>
<defs>
<clipPath id="clip0_495_412">
<rect width="24" height="24" fill="white"/>
</clipPath>
</defs>
</svg>
