<svg width="28" height="28" viewBox="0 0 28 28" fill="none" xmlns="http://www.w3.org/2000/svg">
<path d="M15 18L9 19.08L10 13L21.46 1.58C21.6459 1.39254 21.8671 1.24375 22.1108 1.14222C22.3546 1.04068 22.616 0.988403 22.88 0.988403C23.144 0.988403 23.4054 1.04068 23.6492 1.14222C23.8929 1.24375 24.1141 1.39254 24.3 1.58L26.42 3.7C26.6075 3.88593 26.7562 4.10713 26.8578 4.35085C26.9593 4.59457 27.0116 4.85598 27.0116 5.12C27.0116 5.38402 26.9593 5.64543 26.8578 5.88915C26.7562 6.13287 26.6075 6.35407 26.42 6.54L15 18Z" stroke="white" stroke-width="1.71429" stroke-linecap="round" stroke-linejoin="round"/>
<path d="M24 19V25C24 25.5304 23.7893 26.0391 23.4142 26.4142C23.0391 26.7893 22.5304 27 22 27H3C2.46957 27 1.96086 26.7893 1.58579 26.4142C1.21071 26.0391 1 25.5304 1 25V6C1 5.46957 1.21071 4.96086 1.58579 4.58579C1.96086 4.21071 2.46957 4 3 4H9" stroke="white" stroke-width="1.71429" stroke-linecap="round" stroke-linejoin="round"/>
</svg>
